<?xml version="1.0" encoding="UTF-8" standalone="no"?>
<svg
   id="icon"
   version="1.1"
   viewBox="0 0 72 72"
   height="72"
   width="72"
   sodipodi:docname="icon.svg"
   inkscape:export-filename="icon-monochrome.svg"
   inkscape:export-xdpi="96"
   inkscape:export-ydpi="96"
   xmlns:inkscape="http://www.inkscape.org/namespaces/inkscape"
   xmlns:sodipodi="http://sodipodi.sourceforge.net/DTD/sodipodi-0.dtd"
   xmlns="http://www.w3.org/2000/svg"
   xmlns:svg="http://www.w3.org/2000/svg">
  <sodipodi:namedview
     id="namedview1"
     pagecolor="#ffffff"
     bordercolor="#000000"
     borderopacity="0.25"
     inkscape:showpageshadow="2"
     inkscape:pageopacity="0.0"
     inkscape:pagecheckerboard="0"
     inkscape:deskcolor="#d1d1d1" />
  <defs
     id="defs1" />
  <path
     d="m 71.08857,35.502794 c 0,19.213861 -15.690585,32.177529 -34.894136,32.806881 -6.368906,0.208723 -14.180244,-1.182222 -18.342435,-2.942679 -4.16219,-1.760461 -16.0677454,5.276521 -16.0677454,5.276521 0,0 5.4715359,-12.740462 3.711078,-16.902651 C 3.7348731,49.578675 1.5090259,40.306259 1.5090259,35.502794 1.5090259,16.288934 17.084937,0.71302294 36.298797,0.71302283 55.512659,0.71302189 71.08857,16.288933 71.08857,35.502794 Z"
     style="fill:#ffffff;fill-opacity:1;stroke:#000000;stroke-width:1.14033;stroke-linejoin:round"
     id="path2" />
  <path
     id="triangle-path"
     style="fill:#000000;fill-opacity:1;stroke:#000000;stroke-width:9.26503;stroke-linecap:round;stroke-linejoin:round;stroke-dasharray:none;stroke-opacity:1"
     d="M 35.56165,7.8778712 58.516435,49.547051 12.586903,49.501292 Z" />
  <circle
     style="fill:#ffffff;fill-opacity:1;stroke:#ffffff;stroke-width:3.05764;stroke-linecap:round;stroke-linejoin:round;stroke-dasharray:none;stroke-opacity:1"
     id="path3"
     cx="30.809109"
     cy="47.483192"
     r="2.2420707" />
  <path
     id="rect5"
     style="stroke:#ffffff;stroke-width:3.805;stroke-linecap:round;stroke-linejoin:round;stroke-dasharray:none;stroke-opacity:1"
     d="m 30.809118,16.940285 c -2.578836,-0.039 0,22.088856 0,22.088856 0,0 2.578836,-22.049854 0,-22.088856 z" />
  <circle
     style="fill:#ffffff;fill-opacity:1;stroke:#ffffff;stroke-width:3.05764;stroke-linecap:round;stroke-linejoin:round;stroke-dasharray:none;stroke-opacity:1"
     id="path3-6"
     cx="40.294231"
     cy="47.483192"
     r="2.2420707" />
  <path
     id="rect5-3"
     style="stroke:#ffffff;stroke-width:3.805;stroke-linecap:round;stroke-linejoin:round;stroke-dasharray:none;stroke-opacity:1"
     d="m 40.294239,16.940286 c -2.578835,-0.039 0,22.088855 0,22.088855 0,0 2.578836,-22.049853 0,-22.088855 z" />
</svg>
