<?xml version="1.0" encoding="UTF-8" standalone="no"?>
<svg
   xmlns="http://www.w3.org/2000/svg"
   id="svg8"
   version="1.1"
   viewBox="0 0 135.46666 135.46665"
   height="512"
   width="512">
  <defs
     id="defs2">
    <rect
       id="rect849"
       height="54.239583"
       width="47.436012"
       y="38.175595"
       x="59.153274" />
    <linearGradient
       id="linearGradient839">
      <stop
         id="stop837"
         offset="0"
         style="stop-color:#ffffff;stop-opacity:1;" />
    </linearGradient>
  </defs>

  <metadata
     id="metadata5">
  </metadata>
  <g
     id="layer2" >
    <path
       d="m 132.26414,65.20089 c 0,34.79394 -28.41372,58.26955 -63.188991,59.40923 -11.533306,0.37797 -25.678679,-2.14086 -33.215895,-5.32883 -7.537216,-3.18798 -29.0967131,9.55513 -29.0967131,9.55513 0,0 9.9082791,-23.07141 6.7203061,-30.608623 C 10.294873,90.690581 6.2641373,73.899375 6.2641373,65.20089 6.2641373,30.406951 34.470198,2.2008898 69.264137,2.2008896 104.05808,2.2008879 132.26414,30.406949 132.26414,65.20089 Z"
       style="fill:#ffffff;fill-opacity:1;stroke:#000000;stroke-width:2.065;stroke-miterlimit:4;stroke-dasharray:none;stroke-opacity:1"
       id="path863" />
  </g>
  <g
     id="layer1">
    <path
       id="path10"
       d="m 8.9875832,128.73057 c 0,0 8.5853508,-17.5123 15.6510028,-31.377982 C 14.918986,85.837651 4.4493948,66.285519 10.555507,42.011298 16.661619,17.737077 42.30594,3.3797252 72.135911,2.653701 101.66706,1.9349498 130.58937,19.54866 130.76732,58.62634 c 0.17795,39.077679 -41.756065,61.77375 -87.337153,51.615 -19.558668,10.47961 -34.4425838,18.48923 -34.4425838,18.48923 z"
       style="display:none;fill:#ffffff;fill-opacity:1;stroke:#000000;stroke-width:2.065;stroke-linecap:butt;stroke-linejoin:miter;stroke-miterlimit:4;stroke-dasharray:none;stroke-opacity:1" />
    <g
       style="font-style:normal;font-variant:normal;font-weight:normal;font-stretch:normal;font-size:50.8px;line-height:1.25;font-family:Commons;-inkscape-font-specification:Commons;white-space:pre;inline-size:15.8188;fill:#000000;fill-opacity:1;stroke:none;stroke-width:0.264583"
       id="text857"
       transform="translate(-4.1577381,25.891369)">
      <g
         transform="matrix(1.225231,0,0,1.2777869,-18.316145,-5.6927222)"
         id="g871">
        <path
           transform="matrix(0.98454615,-0.08674149,0.08708975,0.98849939,1.4650783,-13.047825)"
           id="path843"
           style="fill:#ffd200;fill-opacity:1;stroke-width:0.264583"
           d="m 72.571425,10.016368 34.353185,73.90428 -81.179578,-7.20141 z" />
        <path
           d="m 67.785831,13.824857 q 1.6764,9.5504 2.0828,12.8524 0.4064,3.2512 0.4064,7.0104 l 0.3048,5.2832 6.7564,-0.8636 q 0,-7.2136 0.254,-13.3604 0.3048,-6.1976 1.0668,-12.2428 z m 0.8636,32.0548 q 0,-1.9812 1.3716,-3.2512 1.4224,-1.3208 3.6068,-1.3208 1.2192,0 2.54,0.4572 0.6096,0.1524 1.1684,0.5588 1.6764,1.2192 1.6764,3.2512 0,1.8796 -1.5748,3.4036 -0.508,0.4572 -1.1176,0.8128 -0.6096,0.3048 -1.1684,0.4064 -0.5588,0.1524 -1.0668,0.2032 -0.508,0.0508 -0.8636,0.0508 -2.1336,0 -3.3528,-1.2192 -1.2192,-1.2192 -1.2192,-3.3528 z"
           style="font-style:normal;font-variant:normal;font-weight:normal;font-stretch:normal;font-size:50.8px;font-family:Commons;-inkscape-font-specification:Commons;stroke-width:0.264583"
           id="path859" />
      </g>
    </g>
  </g>
</svg>
