<?xml version="1.0" encoding="UTF-8" standalone="no"?>
<svg height="72" id="icon" version="1.1" viewBox="0 0 72 72" width="72"
    xmlns="http://www.w3.org/2000/svg">
  <defs
     id="defs1" />
  <path
      style="fill:#ffffff;fill-opacity:1;stroke:#ffffff;stroke-width:1.14033;stroke-linejoin:round;stroke-opacity:1"
      d="M 36.298828,0.71289062 C 17.084987,0.71289073 1.5097656,16.288112 1.5097656,35.501953 c 0,4.80346 2.2258714,14.076095 3.9863282,18.238281 1.7604561,4.162185 -3.7109376,16.902344 -3.7109376,16.902344 0,0 11.9042208,-7.03585 16.0664058,-5.27539 4.162187,1.760455 11.974851,3.152082 18.34375,2.943359 19.203532,-0.629351 34.892579,-13.594752 34.892579,-32.808594 0,-19.213842 -15.57522,-34.78906331 -34.789063,-34.78906238 z M 35.564453,3.2460938 a 4.6329782,4.6329782 0 0 1 4.054688,2.3964843 L 62.574219,47.3125 a 4.6329782,4.6329782 0 0 1 -4.0625,6.867188 L 12.582031,54.134766 A 4.6329782,4.6329782 0 0 1 8.53125,47.261719 L 31.505859,5.6386719 a 4.6329782,4.6329782 0 0 1 4.058594,-2.3925781 z"
      id="path2" />
  <circle
     style="fill:#ffffff;fill-opacity:1;stroke:#ffffff;stroke-width:3.05764;stroke-linecap:round;stroke-linejoin:round;stroke-dasharray:none;stroke-opacity:1"
     id="path3"
     cx="30.809109"
     cy="47.483192"
     r="2.2420707" />
  <path
     id="rect5"
     style="stroke:#ffffff;stroke-width:3.805;stroke-linecap:round;stroke-linejoin:round;stroke-dasharray:none;stroke-opacity:1"
     d="m 30.809118,16.940285 c -2.578836,-0.039 0,22.088856 0,22.088856 0,0 2.578836,-22.049854 0,-22.088856 z" />
  <circle
     style="fill:#ffffff;fill-opacity:1;stroke:#ffffff;stroke-width:3.05764;stroke-linecap:round;stroke-linejoin:round;stroke-dasharray:none;stroke-opacity:1"
     id="path3-6"
     cx="40.294231"
     cy="47.483192"
     r="2.2420707" />
  <path
     id="rect5-3"
     style="stroke:#ffffff;stroke-width:3.805;stroke-linecap:round;stroke-linejoin:round;stroke-dasharray:none;stroke-opacity:1"
     d="m 40.294239,16.940286 c -2.578835,-0.039 0,22.088855 0,22.088855 0,0 2.578836,-22.049853 0,-22.088855 z" />
</svg>
